<?xml version="1.0" encoding="utf-8"?>
<!-- Generator: Adobe Illustrator 23.0.5, SVG Export Plug-In . SVG Version: 6.00 Build 0)  -->
<svg version="1.1" id="Layer_1" xmlns="http://www.w3.org/2000/svg" xmlns:xlink="http://www.w3.org/1999/xlink" x="0px" y="0px"
	 viewBox="0 0 129.63 45.12" style="enable-background:new 0 0 129.63 45.12;" xml:space="preserve">
<style type="text/css">
	.st0{fill:#2B9CA8;}
	.st1{fill:#EE7261;}
	.st2{fill:#FFFFFF;}
	.st3{fill:none;}
</style>
<g>
	<g>
		<path class="st0" d="M56.76,8.5v14.98c0,0.85-0.69,1.53-1.53,1.53h-0.46c-0.85,0-1.53-0.69-1.53-1.53V8.5
			c0-0.85,0.69-1.53,1.53-1.53h0.46C56.07,6.97,56.76,7.66,56.76,8.5z"/>
		<path class="st0" d="M62.88,14.58L68,7.6c0.29-0.39,0.75-0.63,1.24-0.63h0.32c1.29,0,2,1.5,1.18,2.5l-4.03,4.9
			c-0.45,0.54-0.47,1.32-0.05,1.89l4.69,6.31c0.75,1.01,0.03,2.45-1.23,2.45h-0.68c-0.5,0-0.96-0.24-1.25-0.64l-5.31-7.47h-0.05
			v6.58c0,0.85-0.69,1.53-1.53,1.53h-0.46c-0.85,0-1.53-0.69-1.53-1.53V8.5c0-0.85,0.69-1.53,1.53-1.53h0.46
			c0.85,0,1.53,0.69,1.53,1.53v6.08H62.88z"/>
		<path class="st0" d="M77.72,14.58l5.12-6.98c0.29-0.39,0.75-0.63,1.24-0.63h0.32c1.29,0,2,1.5,1.18,2.5l-4.03,4.9
			c-0.45,0.54-0.47,1.32-0.05,1.89l4.69,6.31c0.75,1.01,0.03,2.45-1.23,2.45h-0.68c-0.5,0-0.96-0.24-1.25-0.64l-5.31-7.47h-0.05
			v6.58c0,0.85-0.69,1.53-1.53,1.53h-0.46c-0.85,0-1.53-0.69-1.53-1.53V8.5c0-0.85,0.69-1.53,1.53-1.53h0.46
			c0.85,0,1.53,0.69,1.53,1.53v6.08H77.72z"/>
		<path class="st0" d="M96.8,10.03h-2.75c-0.85,0-1.53,0.69-1.53,1.53v0.91c0,0.85,0.69,1.53,1.53,1.53h2.54
			c0.85,0,1.53,0.69,1.53,1.53v0c0,0.85-0.69,1.53-1.53,1.53h-2.54c-0.85,0-1.53,0.69-1.53,1.53v1.82c0,0.85,0.69,1.53,1.53,1.53
			h2.75c0.85,0,1.53,0.69,1.53,1.53v0c0,0.85-0.69,1.53-1.53,1.53h-6.27c-0.85,0-1.53-0.69-1.53-1.53V8.5
			c0-0.85,0.69-1.53,1.53-1.53h6.27c0.85,0,1.53,0.69,1.53,1.53v0C98.33,9.35,97.64,10.03,96.8,10.03z"/>
		<path class="st0" d="M100.67,23.48V8.02c0-0.85,0.69-1.53,1.53-1.53h0.24c0.48,0,0.93,0.23,1.22,0.61l9.04,12h0.05V8.5
			c0-0.85,0.69-1.53,1.53-1.53h0.46c0.85,0,1.53,0.69,1.53,1.53v15.34c0,0.85-0.69,1.53-1.53,1.53h-0.24
			c-0.48,0-0.93-0.23-1.22-0.61l-9.04-12h-0.05v10.72c0,0.85-0.69,1.53-1.53,1.53h-0.46C101.36,25.01,100.67,24.33,100.67,23.48z"/>
		<path class="st0" d="M126.64,10.03h-2.75c-0.85,0-1.53,0.69-1.53,1.53v0.91c0,0.85,0.69,1.53,1.53,1.53h2.54
			c0.85,0,1.53,0.69,1.53,1.53v0c0,0.85-0.69,1.53-1.53,1.53h-2.54c-0.85,0-1.53,0.69-1.53,1.53v1.82c0,0.85,0.69,1.53,1.53,1.53
			h2.75c0.85,0,1.53,0.69,1.53,1.53v0c0,0.85-0.69,1.53-1.53,1.53h-6.27c-0.85,0-1.53-0.69-1.53-1.53V8.5
			c0-0.85,0.69-1.53,1.53-1.53h6.27c0.85,0,1.53,0.69,1.53,1.53v0C128.17,9.35,127.48,10.03,126.64,10.03z"/>
	</g>
	<g>
		<path class="st1" d="M59.42,31.33v7.14h-0.7v-1.28h-0.03c-0.26,0.44-0.64,0.79-1.14,1.05c-0.51,0.26-1.03,0.39-1.58,0.39
			c-1.06,0-1.92-0.36-2.56-1.08c-0.64-0.72-0.97-1.62-0.97-2.69c0-1.06,0.32-1.94,0.96-2.64c0.64-0.7,1.48-1.04,2.54-1.04
			c0.56,0,1.08,0.12,1.57,0.36c0.49,0.24,0.88,0.58,1.18,1.03h0.03v-1.24H59.42z M55.91,31.83c-0.89,0-1.62,0.38-2.17,1.15
			c-0.4,0.55-0.61,1.24-0.6,1.92c0.01,0.84,0.27,1.56,0.78,2.16c0.52,0.61,1.2,0.92,2.03,0.92c0.88,0,1.56-0.31,2.07-0.92
			c0.5-0.61,0.75-1.37,0.75-2.28c0-0.84-0.26-1.55-0.79-2.11C57.45,32.11,56.76,31.83,55.91,31.83z"/>
		<path class="st1" d="M61.8,38.47V25.72h0.7v6.85h0.03c0.3-0.44,0.69-0.79,1.18-1.03c0.49-0.24,1.01-0.36,1.57-0.36
			c1.05,0,1.9,0.35,2.54,1.04c0.64,0.7,0.96,1.58,0.96,2.64c0,1.07-0.32,1.97-0.97,2.69c-0.64,0.72-1.5,1.08-2.56,1.08
			c-0.55,0-1.07-0.13-1.58-0.39c-0.5-0.26-0.89-0.61-1.14-1.05h-0.03v1.28H61.8z M65.26,37.98c0.84,0,1.53-0.31,2.04-0.92
			s0.77-1.35,0.77-2.2c0-0.92-0.34-1.7-1.01-2.36c-0.4-0.39-0.95-0.63-1.51-0.67c-1-0.06-1.78,0.22-2.35,0.86
			c-0.51,0.58-0.77,1.3-0.77,2.18c0,0.87,0.26,1.6,0.77,2.2C63.72,37.68,64.41,37.98,65.26,37.98z"/>
		<path class="st1" d="M76.04,38.47v-1.28h-0.03c-0.26,0.44-0.64,0.79-1.14,1.05c-0.51,0.26-1.03,0.39-1.58,0.39
			c-1.06,0-1.92-0.36-2.56-1.08c-0.64-0.72-0.97-1.62-0.97-2.69c0-1.06,0.32-1.94,0.96-2.64c0.64-0.7,1.48-1.04,2.54-1.04
			c0.56,0,1.08,0.12,1.57,0.36c0.49,0.24,0.88,0.58,1.18,1.03h0.03v-6.85h0.7v12.76H76.04z M73.27,37.98c0.88,0,1.56-0.31,2.07-0.92
			c0.5-0.61,0.75-1.37,0.75-2.28c0-0.84-0.26-1.55-0.79-2.11c-0.63-0.68-1.5-0.94-2.61-0.81c-0.36,0.04-0.71,0.19-0.98,0.43
			c-0.83,0.7-1.25,1.56-1.25,2.57c0,0.86,0.26,1.59,0.78,2.2S72.44,37.98,73.27,37.98z"/>
		<path class="st1" d="M85.04,34.96H79.4c-0.16,0-0.29,0.13-0.28,0.29c0.04,0.77,0.3,1.4,0.78,1.89c0.54,0.56,1.23,0.83,2.08,0.83
			c0.54,0,1.02-0.15,1.46-0.44c0.44-0.29,0.79-0.69,1.06-1.18l0.59,0.34c-0.68,1.29-1.75,1.93-3.2,1.93c-1.03,0-1.87-0.36-2.5-1.09
			c-0.64-0.73-0.96-1.61-0.96-2.65c0-1.03,0.32-1.91,0.97-2.63c0.64-0.72,1.48-1.08,2.5-1.08c1.05,0,1.89,0.37,2.51,1.1
			c0.57,0.67,0.87,1.47,0.91,2.4C85.32,34.83,85.19,34.96,85.04,34.96z M79.12,34.31h5.17c0.17,0,0.32-0.17,0.27-0.33
			c-0.13-0.53-0.4-0.99-0.8-1.39c-0.47-0.46-1.11-0.75-1.76-0.77c-0.76-0.02-1.42,0.22-1.98,0.73
			C79.48,33.05,79.18,33.63,79.12,34.31z"/>
		<path class="st1" d="M87.7,31.33v1.11h0.03c0.21-0.4,0.49-0.71,0.87-0.94s0.79-0.33,1.25-0.33c0.88,0,1.49,0.25,1.83,0.75
			c0.34,0.5,0.52,1.24,0.52,2.23v4.31h-0.7v-4.31c0-0.37-0.02-0.68-0.05-0.92s-0.11-0.48-0.22-0.72c-0.11-0.24-0.28-0.41-0.53-0.53
			c-0.24-0.11-0.55-0.17-0.92-0.17c-1.39,0-2.09,1.04-2.09,3.12v3.53h-0.7v-7.14H87.7z"/>
		<path class="st1" d="M95.28,31.33v1.11h0.03c0.21-0.4,0.49-0.71,0.87-0.94s0.79-0.33,1.25-0.33c0.88,0,1.49,0.25,1.83,0.75
			c0.34,0.5,0.52,1.24,0.52,2.23v4.31h-0.7v-4.31c0-0.37-0.02-0.68-0.05-0.92s-0.11-0.48-0.22-0.72c-0.11-0.24-0.28-0.41-0.53-0.53
			c-0.24-0.11-0.55-0.17-0.92-0.17c-1.39,0-2.09,1.04-2.09,3.12v3.53h-0.7v-7.14H95.28z"/>
		<path class="st1" d="M108.44,31.33v7.14h-0.7v-1.28h-0.03c-0.26,0.44-0.64,0.79-1.14,1.05c-0.51,0.26-1.03,0.39-1.58,0.39
			c-1.06,0-1.92-0.36-2.56-1.08c-0.64-0.72-0.97-1.62-0.97-2.69c0-1.06,0.32-1.94,0.96-2.64c0.64-0.7,1.48-1.04,2.54-1.04
			c0.56,0,1.08,0.12,1.57,0.36c0.49,0.24,0.88,0.58,1.18,1.03h0.03v-1.24H108.44z M104.93,31.83c-0.89,0-1.62,0.38-2.17,1.15
			c-0.4,0.55-0.61,1.24-0.6,1.92c0.01,0.84,0.27,1.56,0.78,2.16c0.52,0.61,1.2,0.92,2.03,0.92c0.88,0,1.56-0.31,2.07-0.92
			c0.5-0.61,0.75-1.37,0.75-2.28c0-0.84-0.26-1.55-0.79-2.11C106.48,32.11,105.78,31.83,104.93,31.83z"/>
		<path class="st1" d="M111.79,31.98c-0.15,0-0.27,0.12-0.27,0.27v6.22h-0.7v-6.5h-0.79v-0.65h0.79v-3.2c0-0.83,0.09-1.42,0.28-1.75
			c0.33-0.58,0.86-0.87,1.59-0.87c0.23,0,0.43,0.04,0.62,0.11v0.63c-0.37-0.06-0.56-0.09-0.57-0.09c-0.29,0-0.52,0.06-0.7,0.19
			c-0.17,0.12-0.3,0.31-0.37,0.55s-0.12,0.45-0.13,0.63c-0.02,0.18-0.02,0.43-0.02,0.73v2.79c0,0.15,0.12,0.27,0.27,0.27h1.52v0.65
			H111.79z"/>
		<path class="st1" d="M120.45,34.96h-5.63c-0.16,0-0.29,0.13-0.28,0.29c0.04,0.77,0.3,1.4,0.78,1.89c0.54,0.56,1.23,0.83,2.08,0.83
			c0.54,0,1.02-0.15,1.46-0.44c0.44-0.29,0.79-0.69,1.06-1.18l0.59,0.34c-0.68,1.29-1.75,1.93-3.2,1.93c-1.03,0-1.87-0.36-2.5-1.09
			c-0.64-0.73-0.96-1.61-0.96-2.65c0-1.03,0.32-1.91,0.97-2.63c0.64-0.72,1.48-1.08,2.5-1.08c1.05,0,1.89,0.37,2.51,1.1
			c0.57,0.67,0.87,1.47,0.91,2.4C120.74,34.83,120.6,34.96,120.45,34.96z M114.53,34.31h5.17c0.17,0,0.32-0.17,0.27-0.33
			c-0.13-0.53-0.4-0.99-0.8-1.39c-0.47-0.46-1.11-0.75-1.76-0.77c-0.76-0.02-1.42,0.22-1.98,0.73
			C114.89,33.05,114.59,33.63,114.53,34.31z"/>
		<path class="st1" d="M128.7,31.33v7.14H128v-1.28h-0.03c-0.26,0.44-0.64,0.79-1.14,1.05c-0.51,0.26-1.03,0.39-1.58,0.39
			c-1.06,0-1.92-0.36-2.56-1.08c-0.64-0.72-0.97-1.62-0.97-2.69c0-1.06,0.32-1.94,0.96-2.64c0.64-0.7,1.48-1.04,2.54-1.04
			c0.56,0,1.08,0.12,1.57,0.36c0.49,0.24,0.88,0.58,1.18,1.03H128v-1.24H128.7z M125.19,31.83c-0.89,0-1.62,0.38-2.17,1.15
			c-0.4,0.55-0.61,1.24-0.6,1.92c0.01,0.84,0.27,1.56,0.78,2.16c0.52,0.61,1.2,0.92,2.03,0.92c0.88,0,1.56-0.31,2.07-0.92
			c0.5-0.61,0.75-1.37,0.75-2.28c0-0.84-0.26-1.55-0.79-2.11C126.73,32.11,126.04,31.83,125.19,31.83z"/>
	</g>
	<g>
		<g>
			<path class="st2" d="M13.16,14.56l-2.39-0.54L8.44,13.5l-3.08-0.69C9.12,12.16,11.52,12.93,13.16,14.56z"/>
		</g>
		<g>
			<circle class="st0" cx="41.32" cy="18.52" r="0.89"/>
			<g>
				<path class="st0" d="M38.29,35.73c-2.04,1.92-4.73,2.9-8,2.9c-1.06,0-2.18-0.1-3.35-0.31c-3.4-0.58-5.62-2.25-7.15-4.44
					c-0.35-0.49-0.65-1-0.93-1.54c-0.03-0.06-0.06-0.12-0.09-0.18c-0.29-0.57-0.55-1.17-0.79-1.77c-0.77-2-1.29-4.16-1.78-6.22
					c-0.26-1.09-0.51-2.14-0.78-3.13c-0.1-0.38-0.21-0.74-0.32-1.1c-0.13-0.42-0.27-0.83-0.42-1.22c-0.14-0.36-0.28-0.71-0.44-1.04
					c-0.79-1.69-1.84-2.99-3.45-3.66c-0.67-0.29-1.44-0.47-2.33-0.52c-0.63-0.04-1.33-0.02-2.1,0.07c-0.46,0.06-0.89-0.25-0.97-0.71
					l-0.01-0.05l0,0c-0.09-0.49,0.25-0.95,0.75-1.01c4.31-0.53,6.87,0.82,8.55,3.1c0.8,1.09,1.4,2.39,1.89,3.79
					c0.14,0.4,0.27,0.82,0.39,1.24c0.17,0.55,0.32,1.11,0.46,1.67c0.18,0.68,0.34,1.37,0.51,2.07c0.01,0.03,0.01,0.06,0.02,0.1
					c0.28,1.16,0.55,2.3,0.86,3.4c0.27,0.96,0.56,1.88,0.9,2.75c0.07,0.18,0.15,0.37,0.23,0.55c0.26,0.6,0.54,1.17,0.87,1.71
					c1.33,2.22,3.28,3.84,6.45,4.39c4.23,0.73,7.54,0.01,9.82-2.13c3.81-3.59,3.87-10.26,3.76-12.57c-0.02-0.46,0.32-0.85,0.78-0.9
					l0.06-0.01l0,0c0.5-0.05,0.94,0.32,0.96,0.82C42.75,24.33,42.69,31.59,38.29,35.73z"/>
			</g>
			<g>
				<path class="st0" d="M14.53,22.31c-0.06-0.23-0.12-0.46-0.18-0.69c-0.19-0.69-0.65-1.27-1.27-1.61
					c-0.41-0.22-0.84-0.41-1.29-0.57c-1.15-0.41-2.44-0.57-3.76-0.46c-4.06,0.36-7.42,3.61-7.94,7.65
					c-0.7,5.39,3.51,10.03,8.78,10.03c0.21,0,0.41-0.01,0.61-0.02c1.12-0.08,2.1-0.79,2.48-1.85l0.29-0.8
					c-1,0.56-2.15,0.87-3.38,0.87c-4.2,0-7.54-3.68-7-7.96c0.38-3.07,2.84-5.61,5.9-6.07c1.75-0.27,3.41,0.11,4.77,0.94
					c1.05,0.64,1.91,1.54,2.51,2.61C14.87,23.69,14.7,23,14.53,22.31z"/>
			</g>
		</g>
		<g>
			<g>
				<path class="st1" d="M28.44,22.91L28.44,22.91c-0.28-0.09-0.44-0.39-0.35-0.67l3.57-11.06c0.09-0.28,0.39-0.43,0.68-0.34v0
					c0.28,0.09,0.44,0.39,0.35,0.67l-3.57,11.06C29.03,22.84,28.73,22.99,28.44,22.91z"/>
			</g>
			<g>
				<path class="st1" d="M32.5,17.21L32.5,17.21c-0.2-0.22-0.19-0.55,0.03-0.75l4.09-3.68c0.22-0.2,0.23-0.53,0.03-0.75l-3.74-4.04
					c-0.2-0.22-0.19-0.55,0.03-0.75l0,0c0.22-0.2,0.56-0.18,0.76,0.03l4.47,4.82c0.2,0.22,0.19,0.55-0.03,0.75l-4.89,4.4
					C33.04,17.44,32.7,17.43,32.5,17.21z"/>
			</g>
			<g>
				<path class="st1" d="M26.88,25.89l-4.47-4.82c-0.2-0.22-0.19-0.55,0.03-0.75l4.89-4.4c0.22-0.2,0.56-0.18,0.76,0.03v0
					c0.2,0.22,0.19,0.55-0.03,0.75l-4.09,3.68c-0.22,0.2-0.23,0.53-0.03,0.75l3.74,4.04c0.2,0.22,0.19,0.55-0.03,0.75h0
					C27.42,26.12,27.08,26.11,26.88,25.89z"/>
			</g>
		</g>
		<polyline class="st3" points="10.64,38.4 11.42,36.27 12.24,33.99 13.94,29.3 		"/>
	</g>
</g>
</svg>
